<svg xmlns="http://www.w3.org/2000/svg" viewBox="0 0 900 115" width="100%" height="100%">
  <defs>
    <linearGradient id="ftrBg" x1="0%" y1="0%" x2="0%" y2="100%">
      <stop offset="0%" stop-color="#210206" />
      <stop offset="55%" stop-color="#38040c" />
      <stop offset="100%" stop-color="#120103" />
    </linearGradient>

    <linearGradient id="ftrWave1" x1="0%" y1="0%" x2="100%" y2="0%">
      <stop offset="0%" stop-color="#4a000b" stop-opacity="0.7" />
      <stop offset="50%" stop-color="#d60024" stop-opacity="0.85" />
      <stop offset="100%" stop-color="#4a000b" stop-opacity="0.7" />
    </linearGradient>

    <linearGradient id="ftrWave2" x1="0%" y1="0%" x2="100%" y2="0%">
      <stop offset="0%" stop-color="#1a0004" stop-opacity="0.92" />
      <stop offset="50%" stop-color="#800016" stop-opacity="0.95" />
      <stop offset="100%" stop-color="#1a0004" stop-opacity="0.92" />
    </linearGradient>

    <filter id="ftrGlow" x="-20%" y="-20%" width="140%" height="140%">
      <feGaussianBlur stdDeviation="2.2" result="blur" />
      <feMerge>
        <feMergeNode in="blur" />
        <feMergeNode in="SourceGraphic" />
      </feMerge>
    </filter>
  </defs>

  <rect width="900" height="115" fill="url(#ftrBg)" />

  <!-- Flowing Crimson Waves at Bottom -->
  <path d="M -900,62 Q -675,38 -450,62 T 0,62 T 450,62 T 900,62 T 1350,62 T 1800,62 L 1800,115 L -900,115 Z"
    fill="url(#ftrWave1)" stroke="#ff2e52" stroke-width="1.2">
    <animateTransform attributeName="transform" type="translate" from="0,0" to="-900,0" dur="10s" repeatCount="indefinite" />
  </path>

  <path d="M -900,76 Q -675,98 -450,76 T 0,76 T 450,76 T 900,76 T 1350,76 T 1800,76 L 1800,115 L -900,115 Z"
    fill="url(#ftrWave2)" stroke="#ff1a3c" stroke-width="1.4">
    <animateTransform attributeName="transform" type="translate" from="-900,0" to="0,0" dur="7.5s" repeatCount="indefinite" />
  </path>

  <!-- Crimson Filigree Divider & Tagline -->
  <g transform="translate(0, 8)">
    <line x1="160" y1="22" x2="415" y2="22" stroke="#ff1e42" stroke-width="1" opacity="0.6" />
    <polygon points="450,15 457,22 450,29 443,22" fill="#ff2e52" filter="url(#ftrGlow)" />
    <circle cx="430" cy="22" r="2" fill="#ffffff" />
    <circle cx="470" cy="22" r="2" fill="#ffffff" />
    <line x1="485" y1="22" x2="740" y2="22" stroke="#ff1e42" stroke-width="1" opacity="0.6" />

    <text x="450" y="88" text-anchor="middle"
      font-family="'Segoe UI', 'Inter', sans-serif" font-size="11" font-weight="700" letter-spacing="3.5" fill="#ffe6eb">
      OPEN-SOURCE ENTHUSIAST &#9670; REVERSE ENGINEER &#9670; 3D ARTIST &#9670; CONTINUOUS LEARNER
    </text>
  </g>

  <rect width="900" height="115" fill="none" stroke="#ff1a3c" stroke-width="2" opacity="0.4" />
</svg>
